<svg width="280" height="112" viewBox="0 0 280 112" fill="none" xmlns="http://www.w3.org/2000/svg">
<g clip-path="url(#clip0_33_10629)">
<path d="M71.2154 34.4337C67.9742 22.8472 58.2688 15.9224 43.3739 15.9224C28.4789 15.9224 19.4199 21.2359 19.4199 29.9258C19.4199 40.064 31.5562 43.1236 48.5543 45.6943C71.0516 49.2337 90.6354 55.6696 90.6354 77.8831C90.6354 100.097 69.7587 112 45.3131 112C22.825 112 1.78448 101.862 0 77.2404H18.291C20.558 88.3472 31.0737 96.0685 46.4512 96.0685C60.372 96.0685 71.8619 90.4382 71.8619 79.6573C71.8619 66.7854 57.1308 64.0427 40.6243 61.6348C19.5838 58.5753 0.810301 53.2618 0.810301 32.5056C0.810301 11.7495 18.9374 0 44.5119 0C70.0865 0 86.7568 12.709 89.5064 34.4337H71.2154Z" fill="#2C2C2C"/>
<path d="M128.028 110.715C111.521 110.715 105.53 103.799 105.53 87.5416V46.1832H94.3591V31.7996H105.53V10.9438H123.175V31.7996H136.932V46.1832H123.175V84.645C123.175 92.2124 125.114 95.109 132.889 95.109H137.096V110.724H128.028V110.715Z" fill="#2C2C2C"/>
<path d="M160.066 75.4754C161.523 88.6732 170.91 96.5574 183.374 96.5574C192.924 96.5574 200.372 92.0496 204.578 84.808H223.197C217.853 101.219 202.803 112 183.055 112C158.773 112 141.784 95.1001 141.784 70.8046C141.784 46.5091 159.748 29.2832 183.547 29.2832C207.346 29.2832 224.663 46.663 224.663 70.8046C224.663 72.2529 224.663 73.8642 224.335 75.4754H160.075H160.066ZM205.707 63.7259C204.087 52.1394 194.536 44.7349 183.21 44.7349C171.884 44.7349 162.652 51.9765 160.221 63.7259H205.707Z" fill="#2C2C2C"/>
<path d="M233.23 110.714V1.28516H251.039V110.714H233.23Z" fill="#2C2C2C"/>
<path d="M262.201 110.714V1.28516H280.009V110.714H262.201Z" fill="#2C2C2C"/>
</g>
<defs>
<clipPath id="clip0_33_10629">
<rect width="280" height="112" fill="white"/>
</clipPath>
</defs>
</svg>
